<svg xmlns="http://www.w3.org/2000/svg" viewBox="0 0 256 256" role="img" aria-label="LumaCore app icon">
  <defs>
    <linearGradient id="base" x1="42" y1="28" x2="214" y2="228" gradientUnits="userSpaceOnUse">
      <stop offset="0" stop-color="#242B33"/>
      <stop offset="1" stop-color="#11161B"/>
    </linearGradient>
    <linearGradient id="rgb" x1="48" y1="208" x2="208" y2="48" gradientUnits="userSpaceOnUse">
      <stop offset="0" stop-color="#FF4040"/>
      <stop offset="0.34" stop-color="#FFD166"/>
      <stop offset="0.58" stop-color="#42F57B"/>
      <stop offset="0.78" stop-color="#42A5F5"/>
      <stop offset="1" stop-color="#B84DFF"/>
    </linearGradient>
    <filter id="softGlow" x="-40%" y="-40%" width="180%" height="180%">
      <feGaussianBlur stdDeviation="7" result="blur"/>
      <feColorMatrix in="blur" type="matrix"
        values="1 0 0 0 0.20
                0 1 0 0 0.35
                0 0 1 0 0.70
                0 0 0 0.85 0"/>
      <feBlend in="SourceGraphic" mode="screen"/>
    </filter>
  </defs>

  <rect x="18" y="18" width="220" height="220" rx="54" fill="url(#base)"/>
  <rect x="18" y="18" width="220" height="220" rx="54" fill="none" stroke="#34404A" stroke-width="4"/>

  <circle cx="128" cy="128" r="82" fill="none" stroke="url(#rgb)" stroke-width="16" stroke-linecap="round" stroke-dasharray="305 92" filter="url(#softGlow)" transform="rotate(-32 128 128)"/>
  <circle cx="128" cy="128" r="58" fill="#171D23" stroke="#303A44" stroke-width="3"/>

  <path d="M76 87v82h49v-18H97V87H76Z" fill="#F4F7FA"/>
  <path d="M150 86c-25 0-43 18-43 43s18 43 43 43c15 0 27-6 35-16l-14-12c-5 6-12 10-21 10-14 0-24-11-24-25s10-25 24-25c9 0 16 4 21 10l14-12c-8-10-20-16-35-16Z" fill="#F4F7FA"/>

  <circle cx="63" cy="68" r="8" fill="#FF4040"/>
  <circle cx="193" cy="63" r="8" fill="#42F57B"/>
  <circle cx="196" cy="194" r="8" fill="#42A5F5"/>
</svg>
